<svg xmlns="http://www.w3.org/2000/svg" viewBox="0 0 30.692 30.523">
  <defs>
    <style>
      .cls-1 {
        fill: #fff;
      }
    </style>
  </defs>
  <g id="Gruppe_42" data-name="Gruppe 42" transform="translate(3.727 0.126) rotate(8)">
    <path id="Pfad_23" data-name="Pfad 23" class="cls-1" d="M19.523,26.871A8.374,8.374,0,0,1,15.1,25.62c-.7-.43-1.394-.881-2.07-1.373a40.812,40.812,0,0,1-5.555-4.714A44.509,44.509,0,0,1,2.7,13.917c-.512-.717-.984-1.435-1.435-2.173A8.435,8.435,0,0,1,2.368,1.475a2.688,2.688,0,0,1,.43-.389A3.337,3.337,0,0,1,5.3-.123,4.4,4.4,0,0,1,7.881,1.393a6.859,6.859,0,0,1,2.173,3.628A3.833,3.833,0,0,1,8.824,8.4L7.451,9.776C6.323,10.9,9.541,14.368,10.976,15.8c4.591,4.591,5.9,4,6.19,3.71l1.353-1.353a4.117,4.117,0,0,1,3.464-1.373,6.552,6.552,0,0,1,3.669,2.091,4.444,4.444,0,0,1,1.558,2.665,3.7,3.7,0,0,1-1.394,2.644l-.594.574c-.348.246-.717.512-1.107.758A8.277,8.277,0,0,1,19.523,26.871ZM3.741,2.193s-.123.1-.328.307a6.953,6.953,0,0,0-.922,8.506c.43.7.881,1.394,1.373,2.091a41.569,41.569,0,0,0,4.612,5.432,42.422,42.422,0,0,0,5.37,4.55c.656.471,1.332.9,2.009,1.312a7.076,7.076,0,0,0,7.5-.082c.348-.225.676-.451,1-.676l.471-.471c.861-.861.984-1.353.963-1.558,0-.184-.123-.717-1.127-1.7a5.153,5.153,0,0,0-2.808-1.681,2.685,2.685,0,0,0-2.275.963l-1.353,1.353c-2.029,2.029-5.657-1.148-8.219-3.71C7.471,14.368,4.4,10.822,6.426,8.793L7.8,7.419a2.4,2.4,0,0,0,.82-2.152A5.542,5.542,0,0,0,6.856,2.418C5.934,1.5,5.422,1.332,5.2,1.311a2.16,2.16,0,0,0-1.394.82l-.061.061Z" transform="translate(0 0)"/>
  </g>
</svg>
