<?xml version="1.0" encoding="utf-8"?>
<!-- Generator: Adobe Illustrator 22.1.0, SVG Export Plug-In . SVG Version: 6.00 Build 0)  -->
<svg version="1.1" id="Ebene_1" xmlns="http://www.w3.org/2000/svg" xmlns:xlink="http://www.w3.org/1999/xlink" x="0px" y="0px"
	 viewBox="0 0 200.7 56.7" style="enable-background:new 0 0 200.7 56.7;" xml:space="preserve">
<style type="text/css">
	.st0{fill:#666666;}
</style>
<title>signia - Life sounds brilliant.</title>
<g>
	<path class="st0" d="M72,0L72,0C61.1,0.1,52.4,9.1,52.5,20c0.1,10.6,8.6,19.1,19.1,19.4c4.8,0.2,9.3-1.9,12.2-5.7V37
		c0,6.6-5.3,11.9-11.9,11.9v7.8c10.9,0,19.7-8.8,19.7-19.7V19.7l0,0C91.6,8.8,82.8,0,72,0z M72,30.7c-6.1,0-11-4.9-11-11
		s4.9-11,11-11s11,4.9,11,11S78,30.7,72,30.7z M117.7,0c9.2,0,16.7,7.5,16.7,16.7c0,0,0,0,0,0v21.9h-8.7V16.7
		c-0.4-4.4-4.3-7.6-8.7-7.2c-3.8,0.4-6.9,3.4-7.2,7.2v21.9h-8.7V16.7C101.1,7.5,108.5,0,117.7,0C117.7,0,117.7,0,117.7,0z M181,0
		L181,0c-10.9,0.1-19.6,9.1-19.4,20c0.1,10.6,8.6,19.1,19.1,19.4c4.8,0.2,9.3-1.9,12.2-5.7v4.9h7.8V19.7C200.7,8.8,191.9,0,181,0z
		 M181,30.7c-6.1,0-11-4.9-11-11s4.9-11,11-11s11,4.9,11,11S187.1,30.7,181,30.7z M144.6,38.5V0.9h8.8v37.6H144.6z"/>
	<path class="st0" d="M34.7,0.9h8.8v37.6h-8.8V0.9z M8.6,14.3V25c0,2.6-2.1,4.8-4.8,4.8H0v8.7h3.8c7.5,0,13.5-6,13.5-13.5V14.4
		c0-2.6,2.1-4.7,4.7-4.7h3.8V0.9H22C14.6,0.9,8.6,6.9,8.6,14.3z"/>
</g>
</svg>
