<svg xmlns="http://www.w3.org/2000/svg" viewBox="0 0 566.93 136.94"><defs><style>.a{fill:#fff;}</style></defs><title>logo</title><path class="a" d="M88.92,65.16c0-20,14-34,33.75-34a29.38,29.38,0,0,1,23.42,12.68,29.32,29.32,0,0,1,23.28-12.68c19.7,0,33.75,14.06,33.75,34V105.8H181.91V65.16c0-7.85-5.24-13.36-12.54-13.36S156.7,57.31,156.7,65.16V105.8H135.48V65.16c0-7.85-5.23-13.36-12.67-13.36s-12.68,5.51-12.68,13.36V105.8H88.92ZM291.28,69c0,21.08-17.08,37.89-35.68,37.89a32.93,32.93,0,0,1-18.87-6.2v36.23H215.51V32.24H234l1.24,6.2a33.22,33.22,0,0,1,20.39-7.31C274.2,31.13,291.28,47.94,291.28,69Zm-21.63,0a16.74,16.74,0,1,0-16.8,16.67A16.67,16.67,0,0,0,269.65,69ZM302.3,105.8V1.1h21.21V105.8Zm33.88-93.32a12.13,12.13,0,0,1,24.25,0,12.13,12.13,0,0,1-24.25,0Zm1.38,93.32V32.24h21.22V105.8ZM395.7,32.24h11.57V52.9H395.7v52.9H374.48V52.9h-6.89V32.24h6.89C374.48,13.09,388.12,0,407.27,0V21.22C400.52,21.22,395.7,25.49,395.7,32.24ZM411.4,69c0-21.08,17.08-37.89,38.43-37.89S488.27,47.94,488.27,69s-17.08,37.89-38.44,37.89S411.4,90.1,411.4,69Zm55.1,0a16.74,16.74,0,1,0-16.67,16.67A16.64,16.64,0,0,0,466.5,69ZM47,54.51l-.18.41.38.22A16,16,0,0,1,52,59.47l.54.74.33-.86c3.27-8.53,4.56-15.22,4.06-21.08l0-.22-.17-.13a37,37,0,0,0-4.79-3.11l-.85-.47.12,1C51.84,40.51,50.52,46.61,47,54.51Zm12-22.27C62,42.31,59,53.11,54.5,63.89a16.67,16.67,0,0,1-9.06,20.35c-3.35,7.81-5.94,15.34-6.17,22.46a34.18,34.18,0,0,0,18.1-8.06l2.9,7.16H77.35V32.24ZM42.41,35.18c.3,4.48-1.26,9.88-4.92,17l-.4.78,1.14-.07a15.64,15.64,0,0,1,5.46.67l.42.13.18-.4c3.83-8.71,4.89-15.15,3.35-20.26l-.07-.24-.24-.09a34.11,34.11,0,0,0-4.69-1.36l-.73-.15.14.73A26.48,26.48,0,0,1,42.41,35.18Zm-12.59-3.9-.39.09a34.06,34.06,0,0,0-4.69,1.38l-.38.14.1.82c.26,2.07-.33,4.82-1.74,8h0C20,47.5,14.54,54.41,8.55,62,5.82,65.45,3,69,.31,72.66l-.11.16,0,.19a38.65,38.65,0,0,0,2.25,9.63l.39,1,.52-1A204.6,204.6,0,0,1,16.05,63.41c4.71-6.62,9.25-13,11.93-18.5C28.69,43.42,31.53,36.89,29.82,31.28Zm-8.34,2.87-.63.32A39,39,0,0,0,.11,66.41L0,68.06l1-1.31c1.73-2.24,3.48-4.45,5.19-6.62C13.39,51,20.82,41.6,21.52,35.77A5.94,5.94,0,0,0,21.48,34.15Zm14.59,72.76h0c.16-5.94,1.82-12.66,5.25-21.14l.31-.78-.83.1a17.73,17.73,0,0,1-1.85.11,16.46,16.46,0,0,1-6.44-1.29l-.44-.19-.21.44c-4,8.72-5.82,15.48-5.59,21.26a32.12,32.12,0,0,0,9.66,1.5Zm-12.87-3c.11-6,2-12.75,6.08-21.38l.17-.37-.32-.24A16.08,16.08,0,0,1,24.25,76l-.41-.85-.48.81C19.3,82.91,15,91,13.8,98.48a36.88,36.88,0,0,0,9.39,5.8ZM11.37,95.45c1.92-8,6.58-16.36,11.32-24.21l.09-.15,0-.17a16.41,16.41,0,0,1-.12-1.9A16,16,0,0,1,33,54l.17-.07.09-.16c3.8-6.84,5.76-11.91,6.13-16h0a17,17,0,0,0-.72-7l-.57,0a28,28,0,0,0-4.47,0L33,30.8l.19.6c.64,1.89.24,6,.24,6-.54,7.54-7.52,17.36-14.92,27.75C13.35,72.39,8,79.88,4.57,86.88l0,.09a39.22,39.22,0,0,0,6.69,9.12ZM497.91,65.16c0-20,14.46-34,34.58-34s34.3,14,34.44,34V105.8H545.71V65.16c0-7.85-5.51-13.36-13.22-13.36s-13.37,5.51-13.37,13.36V105.8H497.91Z"/></svg>