<svg xmlns="http://www.w3.org/2000/svg" viewBox="0 0 97.7 36.21"><defs><style>.cls-1{fill:#666;fill-rule:evenodd;}</style></defs><title>oticon</title><g id="Ebene_2" data-name="Ebene 2"><g id="Ebene_1-2" data-name="Ebene 1"><polygon class="cls-1" points="97.7 29.05 91.79 29.05 91.79 29.96 94.24 29.96 94.24 36.12 95.25 36.12 95.25 29.96 97.7 29.96 97.7 29.05 97.7 29.05"/><path class="cls-1" d="M90.8,29.46a2.83,2.83,0,0,0-1.58-.5,1.9,1.9,0,0,0-2.15,1.89c0,1.94,3.06,2.1,3.06,3.57,0,.39-.36.89-1.15.89a2.38,2.38,0,0,1-1.87-1v1.29a3.12,3.12,0,0,0,2,.65,1.89,1.89,0,0,0,2-1.92C91.08,32,88,32.07,88,30.71c0-.5.47-.84,1.12-.84a2.38,2.38,0,0,1,1.66.74V29.46Z"/><path class="cls-1" d="M81.65,29.92h.65c1,0,1.38.4,1.39,1.07s-.3,1.15-1.39,1.15h-.65V29.92Zm-1-.87v7.07h1V33.05h.43c.52,0,.94.17,1.88,1.62l.93,1.45H86.1c-.49-.67-.66-.91-1-1.4a5.78,5.78,0,0,0-1.57-2A1.77,1.77,0,0,0,84.74,31c0-1.22-.89-2-2.32-2Z"/><polygon class="cls-1" points="78.12 29.05 77.11 29.05 77.11 36.12 78.12 36.12 78.12 29.05 78.12 29.05"/><polygon class="cls-1" points="75.14 29.05 71.37 29.05 71.37 36.12 72.39 36.12 72.39 32.83 75.14 32.83 75.14 31.92 72.39 31.92 72.39 29.96 75.14 29.96 75.14 29.05 75.14 29.05"/><polygon class="cls-1" points="65.65 29.05 61.64 29.05 61.64 36.12 65.74 36.12 65.74 35.21 62.65 35.21 62.65 33.01 65.55 33.01 65.55 32.1 62.65 32.1 62.65 29.96 65.65 29.96 65.65 29.05 65.65 29.05"/><polygon class="cls-1" points="56.84 29.05 55.83 29.05 55.83 36.12 60.04 36.12 60.04 35.21 56.84 35.21 56.84 29.05 56.84 29.05"/><path class="cls-1" d="M51.27,30h1.19c.92,0,1.2.56,1.2,1.08a1.09,1.09,0,0,1-1.24,1.11H51.27V30Zm-1-.91v7.07h1V33.06h1.06c1.64,0,2.38-.87,2.38-2a2,2,0,0,0-2.25-2Z"/><path class="cls-1" d="M42.4,32.59a2.75,2.75,0,1,1,2.75,2.69,2.64,2.64,0,0,1-2.75-2.69Zm-1,0A3.8,3.8,0,1,0,45.15,29a3.62,3.62,0,0,0-3.79,3.63Z"/><polygon class="cls-1" points="40.24 29.05 36.23 29.05 36.23 36.12 40.33 36.12 40.33 35.21 37.24 35.21 37.24 33.01 40.14 33.01 40.14 32.1 37.24 32.1 37.24 29.96 40.24 29.96 40.24 29.05 40.24 29.05"/><path class="cls-1" d="M31.65,30h1.19c.92,0,1.2.56,1.2,1.08a1.09,1.09,0,0,1-1.24,1.11H31.65V30Zm-1-.91v7.07h1V33.06h1.06c1.64,0,2.38-.87,2.38-2a2,2,0,0,0-2.25-2Z"/><path class="cls-1" d="M79.45,8V25.22H83.7V11.53h3.81c2.58,0,2.7,1.11,3.14,3.33l2.14,10.36h4.44l-2.14-11C94.26,9.78,92.95,8,87.91,8ZM52.35,21.77c-1.91,0-2.86-.12-3.73-.63-1.63-1-2.18-2.3-2.18-4.48,0-4,1.83-5.12,5.91-5.12h4.84V8H51a9.13,9.13,0,0,0-6.51,2.22,8.92,8.92,0,0,0-2.5,6.39A8.58,8.58,0,0,0,44.45,23,9,9,0,0,0,51,25.22h6.23V21.77ZM35,11.33V25.26h4.44V8.07H25.72V1.68H21.47V8.07H17.94v3.25h3.53v8.49c0,3.33,1.79,5.44,5.16,5.44h3.85V22H28.69c-2.18,0-3-1.15-3-3.53v-7.1ZM18.34,16.65c0-5.16-3.73-9-9.17-9-5.64,0-9.17,3.81-9.17,9,0,4.84,3.25,9.17,9.17,9.17a8.79,8.79,0,0,0,9.17-9.17Zm-13.69,0c0-3.77,1.71-5.28,4.56-5.28s4.48,1.79,4.48,5.28-1.83,5.52-4.48,5.52c-2.9,0-4.56-1.94-4.56-5.52Zm72.31,0c0-5.16-3.73-9-9.17-9-5.68,0-9.17,3.81-9.17,9,0,4.84,3.21,9.17,9.17,9.17A8.82,8.82,0,0,0,77,16.65Zm-13.69,0c0-3.77,1.71-5.28,4.56-5.28s4.48,1.79,4.48,5.28-1.83,5.52-4.48,5.52c-2.9,0-4.56-1.94-4.56-5.52Z"/><polygon class="cls-1" points="33.74 3.5 37.23 0 40.73 3.5 37.23 7 33.74 3.5 33.74 3.5"/></g></g></svg>