<svg xmlns="http://www.w3.org/2000/svg" viewBox="0 0 123.22 44"><defs><style>.cls-1{fill:#666;}</style></defs><title>phonak</title><g id="Ebene_2" data-name="Ebene 2"><g id="Ebene_1-2" data-name="Ebene 1"><polygon class="cls-1" points="59.85 23.98 64.55 23.98 64.57 7.95 64.63 7.95 71.6 23.98 78.22 23.98 78.22 0.53 73.41 0.53 73.44 16.45 73.38 16.45 66.62 0.53 59.85 0.53 59.85 23.98"/><path class="cls-1" d="M80.67,24,88.25.52h6.53L102.48,24H96.64l-1.49-5H87.66l-1.58,5ZM91.51,5.36h0l-2.58,9.17h5Z"/><polygon class="cls-1" points="104.84 23.98 110.17 23.98 110.17 13.33 110.23 13.33 116.44 23.98 123.22 23.98 115.26 11.45 122.65 0.53 116.23 0.53 110.23 10.1 110.17 10.1 110.17 0.53 104.84 0.53 104.84 23.98"/><path class="cls-1" d="M0,.52H6.36c6.09,0,8.95,2.42,8.95,7.7,0,4.74-2.95,7.56-7.92,7.56H5.32V24H0ZM5.32,11.35H6.69c1.84,0,3.3-.77,3.3-3.23S8.53,5,6.69,5H5.32Z"/><path class="cls-1" d="M45.76,0a10.11,10.11,0,0,0-7.65,3.7l2.41,5.56a5.45,5.45,0,0,1,4.88-3.73c2.91,0,5.3,2.83,5.3,5.93,0,3.88-2.39,6.71-5.3,6.71A4.53,4.53,0,0,1,44.35,18L47,24.09c5.43-.64,9.25-5.6,9.25-12.43S51.2,0,45.76,0"/><path class="cls-1" d="M42.37,18.45a5,5,0,1,0-5-5,5,5,0,0,0,5,5"/><polygon class="cls-1" points="18.32 23.98 23.64 23.98 23.64 13.93 29.93 13.93 29.93 23.98 35.25 23.98 35.25 0.53 29.93 0.53 29.93 9.5 23.64 9.5 23.64 0.53 18.32 0.53 18.32 23.98"/><path class="cls-1" d="M50.92,31.26c0-1.57-.38-2-1.68-2V28.8l3.9-.55V43.76H50.92Z"/><path class="cls-1" d="M56.86,36.33c0-1.55-.36-1.93-1.71-2v-.44l3.92-.71V43.76H56.86Zm-.24-6.27A1.38,1.38,0,0,1,58,28.69a1.4,1.4,0,0,1,1.42,1.37A1.43,1.43,0,0,1,58,31.46,1.38,1.38,0,0,1,56.61,30.07Z"/><path class="cls-1" d="M63,34.34h-1.8v-.89H63V32c0-1.77.77-3.72,3.43-3.72,2.84,0,3.81,1,4.05,2.61H68c0-.8-.31-1.86-1.42-1.86-1.28,0-1.38,1.42-1.38,2.46v2h2.95v.89H65.23v9.42H63Z"/><path class="cls-1" d="M77.71,43.4a8.86,8.86,0,0,1-3.12.6c-3.39,0-5.43-2.06-5.43-5.76,0-3.5,1.68-5,4.65-5,3.79,0,4.1,2.75,4.1,4.23H71.59c0,2.22.91,5.36,4,5.36a5.8,5.8,0,0,0,2.08-.38Zm-2-6.85c0-.51,0-2.59-2-2.59-1.66,0-2.13,1.75-2.13,2.59Z"/><path class="cls-1" d="M84.33,36.33c0-1.55-.35-1.93-1.71-2v-.44l3.92-.71V43.76H84.33Zm-.24-6.27a1.38,1.38,0,0,1,1.4-1.37,1.4,1.4,0,0,1,1.42,1.37,1.43,1.43,0,0,1-1.44,1.4A1.38,1.38,0,0,1,84.09,30.07Z"/><path class="cls-1" d="M95.54,35.25a4.85,4.85,0,0,0-2.64-1.06c-.71,0-1.55.27-1.55,1.22,0,2.11,4.85,2.15,4.85,5.54,0,2.17-1.8,3.06-4,3.06a10.55,10.55,0,0,1-2.83-.4V41.87A5.28,5.28,0,0,0,92.31,43c1.39,0,1.9-.71,1.9-1.48,0-2.17-4.85-2.3-4.85-5.36,0-1.6,1.09-3,3.7-3a10,10,0,0,1,2.48.38Z"/><path class="cls-1" d="M101.77,38.62c0-3.7,1.55-5.41,4.79-5.41s4.79,2.21,4.79,5.41c0,3.61-1.51,5.38-4.79,5.38C103,44,101.77,41.72,101.77,38.62Zm4.79,4.63c2.17,0,2.35-2.41,2.35-4.63,0-2-.2-4.65-2.35-4.65s-2.35,2.7-2.35,4.65S104.36,43.25,106.55,43.25Z"/><path class="cls-1" d="M114.09,36.33c0-1.55-.38-1.93-1.77-2v-.44l4-.71V36h0c.33-.78,1.51-2.83,3.7-2.83,2,0,2.68,1.42,2.68,3.12v7.42h-2.21V38c0-1.75,0-3.3-1.49-3.3s-2.72,2.06-2.72,3.63v5.41h-2.22Z"/></g></g></svg>