<svg xmlns="http://www.w3.org/2000/svg" viewBox="0 0 138.55 47.17"><defs><style>.cls-1{fill:#666;}.cls-2{fill:#fff;}</style></defs><title>reSound</title><g id="Ebene_2" data-name="Ebene 2"><g id="Ebene_1-2" data-name="Ebene 1"><path class="cls-1" d="M135.6,47.17H2.95A3,3,0,0,1,0,44.22V2.95A3,3,0,0,1,2.95,0H135.6a3,3,0,0,1,2.95,2.95V44.22a3,3,0,0,1-2.95,2.95"/><path class="cls-2" d="M26,17.85h0a9.64,9.64,0,0,0-.53,3.47c0,2.28.41,3.66,1.32,4.45s2.45.93,3.95.93a24.4,24.4,0,0,0,3.89-.34l.12,0,0-1.59h-.08a26.82,26.82,0,0,1-4,.35,3.69,3.69,0,0,1-2.7-.72,3.43,3.43,0,0,1-.63-2.34c.44,0,3,.09,4.34.09s3.5-.16,3.52-.17h.06v-.06s.05-1,.05-1.32a5.61,5.61,0,0,0-.8-3.54c-.79-1-2.47-1.1-4-1.1-1.9,0-3.76.23-4.48,1.91m4.6-.36c1.11,0,1.87.08,2.25.48a4.14,4.14,0,0,1,.57,2.59,55.3,55.3,0,0,1-6.07-.09c.12-2.4.28-3,3.26-3"/><path class="cls-2" d="M38.87,12.89a4.31,4.31,0,0,0-1,3.25c0,1.72.44,2.74,1.42,3.29a9,9,0,0,0,3.72.64l.54,0a6.85,6.85,0,0,1,2.86.45c.45.29.61.8.61,2s-.2,1.57-.71,1.93a4.94,4.94,0,0,1-2.78.52c-2.19,0-5.37-.4-5.37-.4v1.78a47.53,47.53,0,0,0,5.4.36c2.22,0,3.51-.3,4.32-1S49,24,49,22.14s-.45-2.78-1.43-3.35a8,8,0,0,0-3.49-.66L42.75,18l-.27,0c-1.91-.12-2.63-.16-2.63-1.86,0-1,.09-1.61.57-2s1.43-.64,3-.64a46.49,46.49,0,0,1,4.88.34V12.13h-.06s-3-.36-4.89-.36c-2.45,0-3.67.3-4.51,1.12m0,0Z"/><path class="cls-2" d="M52.39,17c-.74.85-.88,2.28-.88,4.31s.15,3.46.88,4.31,2.11,1.06,3.89,1.06,3.13-.18,3.89-1.06.88-2.28.88-4.31-.15-3.46-.88-4.31-2.11-1.06-3.89-1.06-3.13.18-3.89,1.06m1.46,7.57h0c-.38-.5-.45-1.49-.45-3.25s.07-2.75.45-3.25,1.11-.58,2.44-.58,2.07.09,2.44.58.45,1.49.45,3.25-.07,2.75-.45,3.25-1.11.58-2.44.58-2.07-.09-2.44-.58"/><path class="cls-2" d="M71,16.07s0,8.6,0,8.7a11.57,11.57,0,0,1-2.67.35c-2.2,0-2.54-.34-2.54-2.6V16.07H64v6.71c0,1.62.24,2.52.83,3.09s1.5.82,3.15.82a13.32,13.32,0,0,0,1.53-.14l.12,0a2.75,2.75,0,0,0,.69-.23A3.67,3.67,0,0,0,70.8,26a.49.49,0,0,1,.25-.12c.07,0,.09,0,.11.14h0s.07.48.07.48h1.58V16.07Z"/><path class="cls-2" d="M79.64,16.05l-.21,0a3.76,3.76,0,0,0-.92.37,2.56,2.56,0,0,1-.58.26c-.07,0-.09,0-.11-.15l-.07-.48H76.19V26.54H78V17.83a15,15,0,0,1,2.82-.32c1.21,0,1.79.12,2.11.45s.43.9.43,2.13v6.47H85.2V19.83c0-1.6-.25-2.52-.82-3.08s-1.52-.81-3.15-.81c-.47,0-1.19.07-1.58.11"/><path class="cls-2" d="M95.41,11.75s0,4.34,0,4.49a19.15,19.15,0,0,0-3.21-.29,3.72,3.72,0,0,0-3.49,1.59A7.48,7.48,0,0,0,88,21.32a7.72,7.72,0,0,0,.71,3.83A3.53,3.53,0,0,0,92,26.7a10.88,10.88,0,0,0,1.66-.13l.2,0a3.6,3.6,0,0,0,.83-.33l.28-.13a2.1,2.1,0,0,1,.36-.16c.1,0,.11,0,.13.14l.07.48h1.66V11.75Zm-5,12.65h0c-.38-.52-.52-1.38-.52-3.08s.15-2.57.53-3.09,1-.71,2.24-.71a20.68,20.68,0,0,1,2.75.22v7a12,12,0,0,1-2.75.38c-1.23,0-1.88-.2-2.25-.71"/><path class="cls-2" d="M21.08,13.78h0m-9.24-2v14.8h1.93s0-6.45,0-6.58h3.08l4.42,6.58h2.37L19.24,20s0,0,0,0a5.92,5.92,0,0,0,1.83-.36,3,3,0,0,0,1.2-.81,4.14,4.14,0,0,0,.92-2.89,4.1,4.1,0,0,0-1-3.21,5.06,5.06,0,0,0-3.5-.94Zm6.39,1.72c1.38,0,2.17.18,2.56.59h0a2.43,2.43,0,0,1,.47,1.81,2.4,2.4,0,0,1-.47,1.79c-.39.41-1.19.6-2.56.6H13.77v-4.8Z"/><path class="cls-2" d="M13,35.36H12a.24.24,0,0,1-.24-.24V32.66a.24.24,0,0,1,.24-.24h1a.24.24,0,0,1,.24.24v2.46a.24.24,0,0,1-.24.24"/><path class="cls-2" d="M18,35.36H16.84a.25.25,0,0,1-.25-.25V32.67a.25.25,0,0,1,.25-.25H18a.25.25,0,0,1,.25.25v2.44a.25.25,0,0,1-.25.25"/><path class="cls-2" d="M22.95,35.36H21.64a.26.26,0,0,1-.27-.27V32.68a.26.26,0,0,1,.27-.27h1.31a.26.26,0,0,1,.27.27V35.1a.26.26,0,0,1-.27.27"/><path class="cls-2" d="M27.91,35.36H26.44a.28.28,0,0,1-.28-.28V32.69a.28.28,0,0,1,.28-.28h1.47a.28.28,0,0,1,.28.28v2.39a.28.28,0,0,1-.28.28"/><path class="cls-2" d="M32.88,35.36H31.24a.29.29,0,0,1-.29-.29V32.71a.29.29,0,0,1,.29-.29h1.63a.29.29,0,0,1,.29.29v2.37a.29.29,0,0,1-.29.29"/><path class="cls-2" d="M37.84,35.36H36a.3.3,0,0,1-.3-.3V32.72a.3.3,0,0,1,.3-.3h1.8a.3.3,0,0,1,.3.3v2.35a.3.3,0,0,1-.3.3"/><path class="cls-2" d="M42.8,35.36h-2a.31.31,0,0,1-.31-.31V32.73a.31.31,0,0,1,.31-.31h2a.31.31,0,0,1,.31.31v2.33a.31.31,0,0,1-.31.31"/><path class="cls-2" d="M47.76,35.36H45.65a.32.32,0,0,1-.32-.32v-2.3a.32.32,0,0,1,.32-.32h2.12a.32.32,0,0,1,.32.32V35a.32.32,0,0,1-.32.32"/><path class="cls-2" d="M52.73,35.36H50.45a.33.33,0,0,1-.33-.33V32.75a.33.33,0,0,1,.33-.33h2.28a.33.33,0,0,1,.33.33V35a.33.33,0,0,1-.33.33"/><path class="cls-2" d="M57.69,35.36H55.25A.35.35,0,0,1,54.9,35V32.76a.35.35,0,0,1,.35-.35h2.44a.35.35,0,0,1,.35.35V35a.35.35,0,0,1-.35.35"/><path class="cls-2" d="M62.65,35.36H60.06a.36.36,0,0,1-.36-.36V32.78a.36.36,0,0,1,.36-.36h2.59a.36.36,0,0,1,.36.36V35a.36.36,0,0,1-.36.36"/><path class="cls-2" d="M114.31,35.36h-49a.65.65,0,0,1-.65-.65V33.07a.65.65,0,0,1,.65-.65h49a.65.65,0,0,1,.65.65v1.64a.65.65,0,0,1-.65.65"/><path class="cls-2" d="M125.93,22a.85.85,0,0,1-.6-.25L118.54,15a.16.16,0,0,0-.27.11v6a.87.87,0,0,1-.84.88.85.85,0,0,1-.87-.85V12.67a.87.87,0,0,1,.4-.74A.85.85,0,0,1,118,12l6.79,6.79a.16.16,0,0,0,.27-.11v-6a.87.87,0,0,1,.84-.88.85.85,0,0,1,.87.85v8.49a.88.88,0,0,1-.42.76.85.85,0,0,1-.43.12"/><path class="cls-2" d="M114,16h-2.52a.87.87,0,0,0-.88.84.85.85,0,0,0,.85.86H113a.21.21,0,0,1,.21.21v2.13a.21.21,0,0,1-.21.21h-3.13a3.41,3.41,0,1,1-.07-6.81H114a.87.87,0,0,0,.88-.84.85.85,0,0,0-.85-.87h-4.18A5.11,5.11,0,1,0,109.76,22H114a.85.85,0,0,0,.85-.85V16.9A.85.85,0,0,0,114,16"/></g></g></svg>