<svg xmlns="http://www.w3.org/2000/svg" viewBox="0 0 308.47 49.9"><defs><style>.cls-1{fill:#8c8989;}</style></defs><title>stars</title><g id="Ebene_2" data-name="Ebene 2"><g id="Ebene_1-2" data-name="Ebene 1"><path class="cls-1" d="M26.24,0l8.1,16.43,18.13,2.63L39.35,31.85l3.1,18L26.24,41.38,10,49.9l3.1-18L0,19.06l18.13-2.63ZM82.13,16.43,64,19.06,77.12,31.85,74,49.9l16.22-8.52,16.21,8.52-3.1-18,13.12-12.79L98.34,16.43,90.24,0Zm64,0L128,19.06l13.12,12.79-3.1,18,16.22-8.52,16.21,8.52-3.1-18,13.12-12.79-18.13-2.63L154.24,0Zm64,0L192,19.06l13.12,12.79-3.1,18,16.22-8.52,16.21,8.52-3.1-18,13.12-12.79-18.13-2.63L218.24,0Zm64,0L256,19.06l13.12,12.79-3.1,18,16.22-8.52,16.21,8.52-3.1-18,13.12-12.79-18.13-2.63L282.24,0Z"/></g></g></svg>